<mxfile host="Electron" modified="2023-12-05T10:48:11.730Z" agent="Mozilla/5.0 (Windows NT 10.0; Win64; x64) AppleWebKit/537.36 (KHTML, like Gecko) draw.io/22.1.2 Chrome/114.0.5735.289 Electron/25.9.4 Safari/537.36" etag="b7o_NMVyw0ixxzNQuadc" version="22.1.2" type="device">
  <diagram name="Page-1" id="7G1OyqcH1VZ-f0cwAxu6">
    <mxGraphModel dx="1418" dy="828" grid="1" gridSize="10" guides="1" tooltips="1" connect="1" arrows="1" fold="1" page="1" pageScale="1" pageWidth="1169" pageHeight="827" math="0" shadow="0">
      <root>
        <mxCell id="0" />
        <mxCell id="1" parent="0" />
        <mxCell id="dH5C9FlS4O6RnlaBn-mB-2" value="&lt;span style=&quot;font-size: 20px;&quot;&gt;ML&lt;/span&gt;" style="rounded=0;whiteSpace=wrap;html=1;fillColor=#f8cecc;strokeColor=#b85450;" parent="1" vertex="1">
          <mxGeometry x="820" y="130" width="220" height="120" as="geometry" />
        </mxCell>
        <mxCell id="dH5C9FlS4O6RnlaBn-mB-15" value="&lt;font style=&quot;font-size: 20px;&quot;&gt;FPV&lt;/font&gt;" style="rounded=0;whiteSpace=wrap;html=1;fillColor=#d5e8d4;strokeColor=#82b366;" parent="1" vertex="1">
          <mxGeometry x="120" y="130" width="220" height="120" as="geometry" />
        </mxCell>
        <mxCell id="dH5C9FlS4O6RnlaBn-mB-16" value="" style="ellipse;whiteSpace=wrap;html=1;fillColor=#dae8fc;dashed=1;dashPattern=1 4;strokeColor=#6c8ebf;" parent="1" vertex="1">
          <mxGeometry x="370" y="100" width="420" height="170" as="geometry" />
        </mxCell>
        <mxCell id="dH5C9FlS4O6RnlaBn-mB-1" value="nRF24L01 " style="rounded=0;whiteSpace=wrap;html=1;fillColor=#f5f5f5;fontColor=#333333;strokeColor=#666666;" parent="1" vertex="1">
          <mxGeometry x="720" y="160" width="120" height="60" as="geometry" />
        </mxCell>
        <mxCell id="dH5C9FlS4O6RnlaBn-mB-13" value="" style="endArrow=classic;startArrow=classic;html=1;rounded=0;exitX=1;exitY=0.25;exitDx=0;exitDy=0;entryX=0;entryY=0.25;entryDx=0;entryDy=0;" parent="1" source="dH5C9FlS4O6RnlaBn-mB-3" target="dH5C9FlS4O6RnlaBn-mB-1" edge="1">
          <mxGeometry width="50" height="50" relative="1" as="geometry">
            <mxPoint x="530" y="220.06000000000006" as="sourcePoint" />
            <mxPoint x="640" y="200" as="targetPoint" />
          </mxGeometry>
        </mxCell>
        <mxCell id="dH5C9FlS4O6RnlaBn-mB-3" value="nRF24L01 " style="rounded=0;whiteSpace=wrap;html=1;fillColor=#f5f5f5;fontColor=#333333;strokeColor=#666666;" parent="1" vertex="1">
          <mxGeometry x="320" y="160" width="120" height="60" as="geometry" />
        </mxCell>
        <mxCell id="dH5C9FlS4O6RnlaBn-mB-19" value="Commands TCP/ DDS" style="text;html=1;strokeColor=none;fillColor=none;align=center;verticalAlign=middle;whiteSpace=wrap;rounded=0;" parent="1" vertex="1">
          <mxGeometry x="499" y="160" width="162" height="10" as="geometry" />
        </mxCell>
        <mxCell id="4q5XhUCpvWr2QT1ugMpi-10" value="2.4Ghz RF -&amp;nbsp;Enhanced ShockBurst (ESB) " style="text;html=1;strokeColor=none;fillColor=none;align=center;verticalAlign=middle;whiteSpace=wrap;rounded=0;" vertex="1" parent="1">
          <mxGeometry x="465" y="120" width="240" height="30" as="geometry" />
        </mxCell>
        <mxCell id="4q5XhUCpvWr2QT1ugMpi-49" value="" style="endArrow=classic;html=1;rounded=0;exitX=0;exitY=0.75;exitDx=0;exitDy=0;entryX=1;entryY=0.75;entryDx=0;entryDy=0;dashed=1;" edge="1" parent="1" source="dH5C9FlS4O6RnlaBn-mB-1" target="dH5C9FlS4O6RnlaBn-mB-3">
          <mxGeometry width="50" height="50" relative="1" as="geometry">
            <mxPoint x="210" y="430" as="sourcePoint" />
            <mxPoint x="260" y="380" as="targetPoint" />
          </mxGeometry>
        </mxCell>
        <mxCell id="4q5XhUCpvWr2QT1ugMpi-50" value="Live feed UDP" style="text;html=1;strokeColor=none;fillColor=none;align=center;verticalAlign=middle;whiteSpace=wrap;rounded=0;" vertex="1" parent="1">
          <mxGeometry x="537" y="210" width="95" height="10" as="geometry" />
        </mxCell>
      </root>
    </mxGraphModel>
  </diagram>
</mxfile>
